<svg height="75%" xmlns="http://www.w3.org/2000/svg" viewBox="0 0 13.56 12.27">
    <defs>
        <style>
            .cls-1{
                fill: #fff;
            }
            .cls-2,.cls-3{
                fill: none;
                stroke: #000;
                stroke-width: 0.75px;
            }
            .cls-2{
                stroke-linejoin: round;
            }
            .cls-3{
                stroke-linecap: round;
            }
        </style>
    </defs>
    <g id="Layer_2" data-name="Layer 2">
        <g id="Layer_1-2" data-name="Layer 1">
            <path class="cls-1" d="M3,1.19c.48-.18,1.42-.07,1.67.47s.4,1.24.41,1.08a6.31,6.31,0,0,1,.14-1.59A1.09,1.09,0,0,1,5.91.46,2,2,0,0,1,6.83.41a1.2,1.2,0,0,1,.76.5A5.4,5.4,0,0,1,8,2.74a6.58,6.58,0,0,1,.28-1.59A1.31,1.31,0,0,1,9,.67a2.81,2.81,0,0,1,1,0,1.42,1.42,0,0,1,.68.48A5.61,5.61,0,0,1,11,2.81c0,.14.07-.39.29-.73a1,1,0,0,1,1.9.63c0,.66,0,.63,0,1.07s0,.83,0,1.2a12.3,12.3,0,0,1-.24,1.74,6.23,6.23,0,0,1-.65,1.39,7.05,7.05,0,0,0-1.19,1.81,4.37,4.37,0,0,0-.11,1,3.73,3.73,0,0,0,.12.93,5.86,5.86,0,0,1-1.23,0c-.39-.06-.87-.84-1-1.08a.38.38,0,0,0-.68,0c-.23.38-.71,1.07-1,1.11-.67.09-2.06,0-3.14,0,0,0,.18-1-.23-1.36S2.91,9.73,2.6,9.45l-.83-.92a4.39,4.39,0,0,1-1.25-2c-.21-.94-.19-1.4,0-1.77a1.54,1.54,0,0,1,.85-.63,1.74,1.74,0,0,1,.88.07,1.12,1.12,0,0,1,.49.39c.23.3.31.45.21.12s-.32-.6-.43-1a4.39,4.39,0,0,1-.38-1.53,1.13,1.13,0,0,1,.83-1"/>
            <path class="cls-2" d="M3,1.19c.48-.18,1.42-.07,1.67.47s.4,1.24.41,1.08a6.31,6.31,0,0,1,.14-1.59A1.09,1.09,0,0,1,5.91.46,2,2,0,0,1,6.83.41a1.2,1.2,0,0,1,.76.5A5.4,5.4,0,0,1,8,2.74a6.58,6.58,0,0,1,.28-1.59A1.31,1.31,0,0,1,9,.67a2.81,2.81,0,0,1,1,0,1.42,1.42,0,0,1,.68.48A5.61,5.61,0,0,1,11,2.81c0,.14.07-.39.29-.73a1,1,0,0,1,1.9.63c0,.66,0,.63,0,1.07s0,.83,0,1.2a12.3,12.3,0,0,1-.24,1.74,6.23,6.23,0,0,1-.65,1.39,7.05,7.05,0,0,0-1.19,1.81,4.37,4.37,0,0,0-.11,1,3.73,3.73,0,0,0,.12.93,5.86,5.86,0,0,1-1.23,0c-.39-.06-.87-.84-1-1.08a.38.38,0,0,0-.68,0c-.23.38-.71,1.07-1,1.11-.67.09-2.06,0-3.14,0,0,0,.18-1-.23-1.36S2.91,9.73,2.6,9.45l-.83-.92a4.39,4.39,0,0,1-1.25-2c-.21-.94-.19-1.4,0-1.77a1.54,1.54,0,0,1,.85-.63,1.74,1.74,0,0,1,.88.07,1.12,1.12,0,0,1,.49.39c.23.3.31.45.21.12s-.32-.6-.43-1a4.39,4.39,0,0,1-.38-1.53A1.13,1.13,0,0,1,3,1.19Z"/>
            <line class="cls-3" x1="10" y1="8.89" x2="10" y2="5.43"/>
            <line class="cls-3" x1="7.99" y1="8.9" x2="7.97" y2="5.43"/>
            <line class="cls-3" x1="5.99" y1="5.46" x2="6.01" y2="8.88"/>
        </g>
    </g>
</svg>