<svg height="100%" xmlns="http://www.w3.org/2000/svg" viewBox="0 0 15.78 15.82" ><defs>
  
  <style>.cls-1{fill:#fff;}.cls-2,.cls-3{fill:none;stroke:#000;stroke-linecap:round;stroke-width:0.75px;}.cls-2{stroke-linejoin:round;}</style>
  
  <filter id="f">
    <feDropShadow dx="1" dy="1" stdDeviation=".1" flood-opacity=".5"/>
  </filter>
  </defs>
   
  <g id="Layer_2" data-name="Layer 2">
    <g id="Isolation_Mode" data-name="Isolation Mode">
        <path class="cls-1" d="M4.38,8.28c-.1-.38-.2-.85-.41-1.55s-.34-.86-.47-1.24S3.2,4.77,3,4.31a11.57,11.57,0,0,1-.46-1.44,1.41,1.41,0,0,1,.24-1.2,1.42,1.42,0,0,1,1.36-.35,2.1,2.1,0,0,1,.92.78,7.56,7.56,0,0,1,.71,1.55A10.7,10.7,0,0,1,6.4,5.88l.08.45s0-1.12,0-1.16c0-1-.06-1.83,0-2.94,0-.13.06-.59.08-.72a1.2,1.2,0,0,1,.68-1,1.7,1.7,0,0,1,1.4,0,1.16,1.16,0,0,1,.68,1c0,.11.1,1,.1,1.11,0,1,0,1.64,0,2.17,0,.23,0,1.62,0,1.47a28.74,28.74,0,0,1,.34-3.94,1.49,1.49,0,0,1,.8-.93,1.35,1.35,0,0,1,1.4.24,1.79,1.79,0,0,1,.48,1.15c0,.41,0,.9,0,1.25,0,.87,0,1.32,0,2.12,0,0,0,.3,0,.18.09-.28.19-.54.26-.74s.25-.62.36-.86a6.1,6.1,0,0,1,.42-.69,1.35,1.35,0,0,1,.67-.56,1,1,0,0,1,1.3.59,3.48,3.48,0,0,1,0,1.1A9,9,0,0,1,15,6.85c-.13.45-.28,1.24-.34,1.6s-.24,1.39-.36,1.82a6.23,6.23,0,0,1-.65,1.39,7.29,7.29,0,0,0-1.2,1.81,4.93,4.93,0,0,0-.1,1,3.73,3.73,0,0,0,.12.93,5.86,5.86,0,0,1-1.23,0c-.39-.06-.87-.84-1-1.08a.38.38,0,0,0-.68,0c-.23.38-.71,1.07-1.05,1.11-.67.09-2.06,0-3.14,0,0,0,.18-1-.23-1.35S4.3,13.28,4,13l-.83-.93c-.29-.36-.63-1.09-1.25-2C1.56,9.6.89,9,.63,8.52A1.76,1.76,0,0,1,.44,7.2,1.2,1.2,0,0,1,1.8,6.36,2,2,0,0,1,3,6.9a7.59,7.59,0,0,1,.75.75c.16.19.2.27.38.51s.3.46.21.12"/>
        <path class="cls-2" d="M4.38,8.28c-.1-.38-.2-.85-.41-1.55s-.34-.86-.47-1.24S3.2,4.77,3,4.31a11.57,11.57,0,0,1-.46-1.44,1.41,1.41,0,0,1,.24-1.2,1.42,1.42,0,0,1,1.36-.35,2.1,2.1,0,0,1,.92.78,7.56,7.56,0,0,1,.71,1.55A10.7,10.7,0,0,1,6.4,5.88l.08.45s0-1.12,0-1.16c0-1-.06-1.83,0-2.94,0-.13.06-.59.08-.72a1.2,1.2,0,0,1,.68-1,1.7,1.7,0,0,1,1.4,0,1.16,1.16,0,0,1,.68,1c0,.11.1,1,.1,1.11,0,1,0,1.64,0,2.17,0,.23,0,1.62,0,1.47a28.74,28.74,0,0,1,.34-3.94,1.49,1.49,0,0,1,.8-.93,1.35,1.35,0,0,1,1.4.24,1.79,1.79,0,0,1,.48,1.15c0,.41,0,.9,0,1.25,0,.87,0,1.32,0,2.12,0,0,0,.3,0,.18.09-.28.19-.54.26-.74s.25-.62.36-.86a6.1,6.1,0,0,1,.42-.69,1.35,1.35,0,0,1,.67-.56,1,1,0,0,1,1.3.59,3.48,3.48,0,0,1,0,1.1A9,9,0,0,1,15,6.85c-.13.45-.28,1.24-.34,1.6s-.24,1.39-.36,1.82a6.23,6.23,0,0,1-.65,1.39,7.29,7.29,0,0,0-1.2,1.81,4.93,4.93,0,0,0-.1,1,3.73,3.73,0,0,0,.12.93,5.86,5.86,0,0,1-1.23,0c-.39-.06-.87-.84-1-1.08a.38.38,0,0,0-.68,0c-.23.38-.71,1.07-1.05,1.11-.67.09-2.06,0-3.14,0,0,0,.18-1-.23-1.35S4.3,13.28,4,13l-.83-.93c-.29-.36-.63-1.09-1.25-2C1.56,9.6.89,9,.63,8.52A1.76,1.76,0,0,1,.44,7.2,1.2,1.2,0,0,1,1.8,6.36,2,2,0,0,1,3,6.9a7.59,7.59,0,0,1,.75.75c.16.19.2.27.38.51s.3.46.21.12"/>
        <line class="cls-3" x1="11.39" y1="12.44" x2="11.39" y2="8.98"/>
        <line class="cls-3" x1="9.37" y1="12.45" x2="9.36" y2="8.98"/>
        <line class="cls-3" x1="7.38" y1="9.01" x2="7.4" y2="12.43"/>
    </g>
  </g>
</svg>