<svg class="rubiks-svg" xmlns="http://www.w3.org/2000/svg" viewBox="0 0 295.06 302.88">
    <path d="M141,61.48a20.4,20.4,0,0,1,13,0l40.55,16c3.58,1.41,3.68,4,.23,5.67l-40.95,20.2a16.41,16.41,0,0,1-12.61.11l-42-19.83c-3.48-1.65-3.4-4.16.18-5.58Z"/>
    <path d="M90.37,41.11a22.82,22.82,0,0,1,13.17.42L133,53.17c3.58,1.41,3.57,3.7,0,5.09l-41.42,16a18.27,18.27,0,0,1-12.8-.6L50,59.31c-3.45-1.72-3.27-4.09.39-5.27Z"/>
    <path d="M49.25,25.22A24.52,24.52,0,0,1,62.51,26l21.35,8.47c3.58,1.42,3.5,3.55-.16,4.72L45.22,51.48a19.81,19.81,0,0,1-12.93-1L11.69,40.25c-3.44-1.71-3.23-3.94.49-5Z"/>
    <path d="M139,50.87a21.15,21.15,0,0,0,13.07,0l29.41-11.31c3.59-1.38,3.54-3.49-.13-4.68l-29-9.42a25.3,25.3,0,0,0-13.32,0L109.71,34.9c-3.66,1.18-3.72,3.28-.13,4.66Z"/>
    <path d="M189.65,42.09a22.74,22.74,0,0,1,13.17-.45l39.5,12.67c3.66,1.18,3.84,3.53.38,5.23L214,73.65a18.67,18.67,0,0,1-12.84.63l-41-15.37c-3.6-1.35-3.63-3.62-.05-5Z"/>
    <path d="M230.33,25.89a24.29,24.29,0,0,1,13.25-.72l36.64,10.18c3.71,1,3.92,3.28.48,5l-18.64,9.29a20.08,20.08,0,0,1-12.95,1l-38.73-12.1c-3.68-1.14-3.76-3.25-.18-4.67Z"/>
    <path d="M180.13,12.17a27.83,27.83,0,0,1,13.42-.31l28.34,7.69c3.71,1,3.81,3,.22,4.36l-19.76,7.61a23.51,23.51,0,0,1-13.22.42l-28.95-9.08c-3.67-1.15-3.68-3.06,0-4.24Z"/>
    <path d="M139.16.76a30.5,30.5,0,0,1,13.51,0l21.61,5.86c3.71,1,3.75,2.79.07,3.94l-20.07,6.32a26.15,26.15,0,0,1-13.35,0l-21.77-6.8c-3.68-1.15-3.64-2.91.07-3.92Z"/>
    <path d="M97.57,11.89a27.79,27.79,0,0,1,13.41.27l22.2,7.13c3.67,1.18,3.66,3.09,0,4.24L104,32.73a23.39,23.39,0,0,1-13.21-.41L69.28,24.06c-3.6-1.39-3.5-3.36.21-4.39Z"/>
    <path d="M90.87,159.19a17.89,17.89,0,0,0,6.56,11l33.62,23.45c3.16,2.2,5.67.86,5.59-3l-1.19-57.55a13.46,13.46,0,0,0-6.28-10.37L89.67,101c-3.37-1.86-5.76-.25-5.31,3.58Z"/>
    <path d="M98.12,220.14a20.24,20.24,0,0,0,6.23,11.41l27.88,23c3,2.45,5.35,1.31,5.29-2.54l-.61-36.72a15.8,15.8,0,0,0-5.8-11.09L98.64,180.87c-3.12-2.25-5.31-1-4.85,2.86Z"/>
    <path d="M103.74,267.34a22.1,22.1,0,0,0,6,11.7l24.2,22.38c2.83,2.62,5.08,1.61,5-2.24l-.5-24.1a17.71,17.71,0,0,0-5.49-11.52l-27.59-23.32c-2.94-2.48-5-1.39-4.52,2.43Z"/>
    <path d="M69.29,89.69a15.89,15.89,0,0,1,7,10.38l7.23,54.09c.51,3.81-1.66,5.13-4.82,2.93l-25.08-17.5a20,20,0,0,1-7.09-10.88l-10-51.37c-.74-3.78,1.4-5.33,4.75-3.44Z"/>
    <path d="M50.8,151.3c-.77-3.77,1.16-5,4.28-2.77L80.19,166.6a18.59,18.59,0,0,1,6.61,11l4.85,36.27c.5,3.81-1.5,4.92-4.46,2.47L64.7,197.69a23.25,23.25,0,0,1-6.78-11.33Z"/>
    <path d="M62.46,209.7c-.77-3.78,1-4.87,4-2.44L88.29,225a20.32,20.32,0,0,1,6.34,11.36L98,262.09c.5,3.81-1.41,4.8-4.24,2.18L74,246a25.37,25.37,0,0,1-6.53-11.61Z"/>
    <path d="M12,104.92a22.35,22.35,0,0,0,7.31,10.94l17.52,12.83c3.1,2.27,5.05,1,4.32-2.74l-9.95-51.5a17.36,17.36,0,0,0-7.41-10.34l-19.19-11C1.3,51.25-.69,52.75.22,56.49Z"/>
    <path d="M25.61,160.06a25.29,25.29,0,0,0,6.93,11.37l17.14,14.65c2.93,2.51,4.68,1.47,3.89-2.3L46.1,147.9A20.83,20.83,0,0,0,39,137L22,124.69c-3.12-2.24-4.95-1-4.07,2.73Z"/>
    <path d="M37.79,206.85a28.62,28.62,0,0,0,6.74,11.64L59,232.33c2.78,2.66,4.4,1.76,3.61-2l-5.35-25.27a23.93,23.93,0,0,0-6.8-11.37l-14.8-12.51c-2.94-2.49-4.59-1.46-3.66,2.27Z"/>
    <path d="M204.2,159.19a18,18,0,0,1-6.57,11L164,193.6c-3.15,2.2-5.67.86-5.59-3l1.19-57.55a13.46,13.46,0,0,1,6.28-10.37L205.39,101c3.38-1.86,5.76-.25,5.31,3.58Z"/>
    <path d="M196.94,220.14a20.22,20.22,0,0,1-6.22,11.41l-27.89,23c-3,2.45-5.35,1.31-5.28-2.54l.61-36.72A15.76,15.76,0,0,1,164,204.22l32.47-23.35c3.12-2.25,5.31-1,4.85,2.86Z"/>
    <path d="M191.32,267.34a22.1,22.1,0,0,1-6,11.7l-24.2,22.38c-2.83,2.62-5.08,1.61-5-2.24l.5-24.1a17.71,17.71,0,0,1,5.49-11.52l27.59-23.32c2.94-2.48,5-1.39,4.52,2.43Z"/>
    <path d="M253.8,73.9c3.35-1.89,5.49-.34,4.75,3.44l-10,51.37a20.07,20.07,0,0,1-7.08,10.88l-25.09,17.5c-3.16,2.2-5.32.88-4.82-2.93l7.23-54.09a15.89,15.89,0,0,1,7-10.38Z"/>
    <path d="M244.26,151.3c.77-3.77-1.16-5-4.28-2.77L214.87,166.6a18.59,18.59,0,0,0-6.61,11l-4.84,36.27c-.51,3.81,1.49,4.92,4.46,2.47l22.48-18.67a23.25,23.25,0,0,0,6.78-11.33Z"/>
    <path d="M232.6,209.7c.77-3.78-1-4.87-4-2.44L206.77,225a20.24,20.24,0,0,0-6.33,11.36l-3.35,25.71c-.5,3.81,1.41,4.8,4.24,2.18L221,246a25.37,25.37,0,0,0,6.53-11.61Z"/>
    <path d="M294.84,56.49c.91-3.74-1.08-5.24-4.42-3.33l-19.19,11a17.36,17.36,0,0,0-7.41,10.34L253.87,126c-.73,3.78,1.22,5,4.32,2.74l17.53-12.83a22.4,22.4,0,0,0,7.3-10.94Z"/>
    <path d="M269.45,160.06a25.29,25.29,0,0,1-6.93,11.37l-17.14,14.65c-2.92,2.51-4.68,1.47-3.89-2.3L249,147.9a20.83,20.83,0,0,1,7.11-11l17-12.26c3.12-2.24,4.95-1,4.07,2.73Z"/>
    <path d="M257.27,206.85a28.51,28.51,0,0,1-6.74,11.64l-14.44,13.84c-2.78,2.66-4.4,1.76-3.61-2l5.35-25.27a23.93,23.93,0,0,1,6.8-11.37l14.81-12.51c2.94-2.49,4.58-1.46,3.65,2.27Z"/>
</svg>